# xmcd CD Database Entry
#
# Track frame offsets:
# 150
# 17830
# 27535
# 40967
# 56567
# 73732
# 84362
# 97360
# 113830
# 132460
# 154967
# 161392
# 178250
# 202310
# 220157
# 234432
# 255372
# 285735
#
# Disc length: 4440 seconds
#
# Revision: 1
# Processed by: cddbd v1.5.1PL0 Copyright (c) Steve Scherf et al.
# Submitted via: tcd 2.0b
#
DISCID=0e115612
DTITLE=Disney - BOSSA DISNEY NOVA
DYEAR=2004
DGENRE=Jazz
TTITLE0=It's Not Easy
TTITLE1=You Can Fly! You Can Fly! You Can Fly!
TTITLE2=Mickey Mouse Club March
TTITLE3=Supercalifragilisticexpialidocious
TTITLE4=Once Upon a Dream
TTITLE5=The Bare Necessities
TTITLE6=Cruella De Vil
TTITLE7=Love Is a Song
TTITLE8=A Whole New World
TTITLE9=Part of Your World
TTITLE10=Heigh-Ho
TTITLE11=Main Street Electrical Parade
TTITLE12=Circle of Life
TTITLE13=One Song
TTITLE14=La La Lu
TTITLE15=Mickey Mouse Club March
TTITLE16=It's Not Easy
TTITLE17=Data Track
EXTD=YEAR: 2004
EXTT0=
EXTT1=
EXTT2=
EXTT3=
EXTT4=
EXTT5=
EXTT6=
EXTT7=
EXTT8=
EXTT9=
EXTT10=
EXTT11=
EXTT12=
EXTT13=
EXTT14=
EXTT15=
EXTT16=
EXTT17=
PLAYORDER=
